<svg width="4006" height="1068" xmlns="http://www.w3.org/2000/svg" xmlns:xlink="http://www.w3.org/1999/xlink" xml:space="preserve" overflow="hidden"><g transform="translate(-504 -1246)"><g><text fill="#FFFFFF" fill-opacity="1" font-family="BioRhyme,BioRhyme_MSFontService,sans-serif" font-style="normal" font-variant="normal" font-weight="400" font-stretch="normal" font-size="458" text-anchor="start" direction="ltr" writing-mode="lr-tb" unicode-bidi="normal" text-decoration="none" transform="matrix(1 0 0 1 1370.89 1785)">Inagaki Lab</text><text fill="#FFFFFF" fill-opacity="1" font-family="BioRhyme,BioRhyme_MSFontService,sans-serif" font-style="normal" font-variant="normal" font-weight="400" font-stretch="normal" font-size="229" text-anchor="start" direction="ltr" writing-mode="lr-tb" unicode-bidi="normal" text-decoration="none" transform="matrix(1 0 0 1 1370.89 2098)">The University of Tokyo</text><path d="M641.99 1741.57C669.142 1740.03 696.734 1746.25 721.148 1760.45L730.822 1767.48 719.282 1769.01C714.362 1770.16 709.486 1771.83 704.719 1774.03 666.588 1791.63 649.944 1836.81 667.545 1874.94 685.147 1913.07 730.327 1929.71 768.459 1912.11L790.673 1895.86 790.428 1902.15C786.769 1929.2 775.273 1955.48 755.734 1977.37 703.631 2035.75 614.066 2040.84 555.685 1988.73 497.305 1936.63 492.216 1847.07 544.32 1788.69 570.371 1759.49 605.789 1743.63 641.99 1741.57Z" fill="#FF0000" fill-rule="evenodd" fill-opacity="1"/><path d="M993.315 1818.85C1069.89 1816.38 1144.13 1859.07 1178.25 1933.01 1223.76 2031.59 1180.73 2148.4 1082.15 2193.9 983.563 2239.41 866.756 2196.38 821.251 2097.79 787.122 2023.86 802.794 1939.67 854.353 1883L858.548 1879.22 860.037 1890.48C861.193 1895.4 862.858 1900.27 865.057 1905.04 882.659 1943.17 927.839 1959.82 965.971 1942.22 1004.1 1924.61 1020.75 1879.43 1003.14 1841.3L987.303 1819.65Z" fill="#FFC000" fill-rule="evenodd" fill-opacity="1"/><path d="M1118.49 1521.63C1154.69 1519.57 1191.67 1531.32 1220.86 1557.37 1279.25 1609.48 1284.33 1699.04 1232.23 1757.42 1186.64 1808.51 1112.37 1818.79 1055.4 1785.65L1046.83 1779.43 1054.4 1778.42C1059.32 1777.27 1064.2 1775.6 1068.97 1773.4 1107.1 1755.8 1123.74 1710.62 1106.14 1672.49 1088.54 1634.36 1043.36 1617.71 1005.23 1635.32L985.908 1649.45 986.122 1643.95C989.781 1616.91 1001.28 1590.63 1020.82 1568.74 1046.87 1539.55 1082.29 1523.68 1118.49 1521.63Z" fill="#0070C0" fill-rule="evenodd" fill-opacity="1"/><path d="M769.551 1334.09C846.126 1331.61 920.362 1374.3 954.491 1448.24 988.62 1522.17 972.948 1606.36 921.389 1663.03L917.347 1666.68 915.946 1656.08C914.791 1651.16 913.126 1646.28 910.926 1641.52 893.325 1603.38 848.144 1586.74 810.012 1604.34 771.881 1621.94 755.238 1667.12 772.838 1705.26L788.309 1726.4 782.427 1727.18C705.852 1729.65 631.616 1686.96 597.487 1613.03 551.982 1514.44 595.011 1397.64 693.595 1352.13 718.241 1340.75 744.026 1334.91 769.551 1334.09Z" fill="#008F00" fill-rule="evenodd" fill-opacity="1"/><path d="M836.119 1701.25C832.204 1692.77 835.906 1682.72 844.386 1678.81 852.866 1674.89 862.914 1678.6 866.829 1687.08 870.743 1695.56 867.042 1705.6 858.562 1709.52 850.081 1713.43 840.033 1709.73 836.119 1701.25Z" fill="#008F00" fill-rule="evenodd" fill-opacity="1"/><path d="M747.961 1837.82C744.047 1829.34 747.748 1819.29 756.228 1815.38 764.709 1811.46 774.757 1815.17 778.671 1823.65 782.586 1832.13 778.884 1842.18 770.404 1846.09 761.923 1850 751.875 1846.3 747.961 1837.82Z" fill="#FF0000" fill-rule="evenodd" fill-opacity="1"/><path d="M997.433 1722.67C993.518 1714.19 997.22 1704.14 1005.7 1700.23 1014.18 1696.31 1024.23 1700.01 1028.14 1708.49 1032.06 1716.97 1028.36 1727.02 1019.88 1730.94 1011.4 1734.85 1001.35 1731.15 997.433 1722.67Z" fill="#0070C0" fill-rule="evenodd" fill-opacity="1"/><path d="M909.132 1859.43C905.217 1850.95 908.919 1840.9 917.399 1836.99 925.879 1833.07 935.927 1836.77 939.842 1845.25 943.756 1853.73 940.055 1863.78 931.574 1867.7 923.094 1871.61 913.046 1867.91 909.132 1859.43Z" fill="#FFC000" fill-rule="evenodd" fill-opacity="1"/></g></g></svg>