<svg width="3983" height="1068" xmlns="http://www.w3.org/2000/svg" xmlns:xlink="http://www.w3.org/1999/xlink" xml:space="preserve" overflow="hidden"><g transform="translate(-522 -9)"><g><text fill="#000000" fill-opacity="1" font-family="BioRhyme,BioRhyme_MSFontService,sans-serif" font-style="normal" font-variant="normal" font-weight="400" font-stretch="normal" font-size="458" text-anchor="start" direction="ltr" writing-mode="lr-tb" unicode-bidi="normal" text-decoration="none" transform="matrix(1 0 0 1 1363.58 548)">Inagaki Lab</text><text fill="#000000" fill-opacity="1" font-family="BioRhyme,BioRhyme_MSFontService,sans-serif" font-style="normal" font-variant="normal" font-weight="400" font-stretch="normal" font-size="229" text-anchor="start" direction="ltr" writing-mode="lr-tb" unicode-bidi="normal" text-decoration="none" transform="matrix(1 0 0 1 1363.58 862)">The University of Tokyo</text><path d="M596.904 812.885C529.477 773.178 507.005 686.329 546.711 618.902 586.418 551.475 673.267 529.003 740.694 568.709 808.121 608.416 830.594 695.265 790.887 762.692 751.18 830.119 664.331 852.591 596.904 812.885Z" fill="#FF0000" fill-rule="evenodd" fill-opacity="1"/><path d="M878.649 868.014C814.778 780.208 834.18 657.249 921.986 593.377 1009.79 529.506 1132.75 548.908 1196.62 636.714 1260.49 724.52 1241.09 847.479 1153.29 911.35 1065.48 975.222 942.521 955.82 878.649 868.014Z" fill="#FFC000" fill-rule="evenodd" fill-opacity="1"/><path d="M1021.31 504.166C953.879 464.46 931.407 377.611 971.114 310.183 1010.82 242.756 1097.67 220.284 1165.1 259.99 1232.52 299.697 1255 386.546 1215.29 453.973 1175.58 521.401 1088.73 543.873 1021.31 504.166Z" fill="#0070C0" fill-rule="evenodd" fill-opacity="1"/><path d="M564.571 436.243C500.699 348.438 520.102 225.479 607.908 161.607 695.714 97.7351 818.673 117.138 882.544 204.943 946.416 292.749 927.013 415.708 839.208 479.58 751.402 543.452 628.443 524.049 564.571 436.243Z" fill="#196B24" fill-rule="evenodd" fill-opacity="1"/><path d="M761.568 502.118C736.862 468.156 744.367 420.596 778.33 395.89 812.293 371.185 859.853 378.69 884.558 412.653 909.263 446.616 901.758 494.176 867.796 518.881 833.833 543.586 786.273 536.081 761.568 502.118Z" fill="#FFFFFF" fill-rule="evenodd" fill-opacity="1"/><path d="M674.757 686.463C650.052 652.5 657.557 604.94 691.519 580.235 725.482 555.529 773.042 563.034 797.747 596.997 822.453 630.96 814.948 678.52 780.985 703.225 747.022 727.93 699.462 720.426 674.757 686.463Z" fill="#FFFFFF" fill-rule="evenodd" fill-opacity="1"/><path d="M876.975 660.771C852.27 626.809 859.774 579.249 893.737 554.543 927.7 529.838 975.26 537.343 999.965 571.306 1024.67 605.269 1017.17 652.829 983.203 677.534 949.24 702.239 901.68 694.734 876.975 660.771Z" fill="#FFFFFF" fill-rule="evenodd" fill-opacity="1"/><path d="M961.703 477.733C936.998 443.77 944.503 396.21 978.466 371.505 1012.43 346.799 1059.99 354.304 1084.69 388.267 1109.4 422.23 1101.89 469.79 1067.93 494.495 1033.97 519.2 986.409 511.695 961.703 477.733Z" fill="#FFFFFF" fill-rule="evenodd" fill-opacity="1"/><path d="M815.832 476.195C810.338 468.642 812.007 458.065 819.56 452.57 827.114 447.076 837.691 448.745 843.185 456.298 848.68 463.852 847.01 474.429 839.457 479.923 831.904 485.418 821.327 483.749 815.832 476.195Z" fill="#196B24" fill-rule="evenodd" fill-opacity="1"/><path d="M756.026 627.346C750.532 619.793 752.201 609.216 759.754 603.721 767.308 598.227 777.885 599.896 783.379 607.449 788.874 615.002 787.204 625.58 779.651 631.074 772.098 636.568 761.521 634.899 756.026 627.346Z" fill="#FF0000" fill-rule="evenodd" fill-opacity="1"/><path d="M978.224 465.715C972.73 458.162 974.399 447.585 981.952 442.09 989.505 436.596 1000.08 438.265 1005.58 445.818 1011.07 453.372 1009.4 463.949 1001.85 469.443 994.296 474.938 983.719 473.269 978.224 465.715Z" fill="#0070C0" fill-rule="evenodd" fill-opacity="1"/><path d="M918.314 617.08C912.82 609.526 914.489 598.949 922.042 593.455 929.596 587.961 940.173 589.63 945.667 597.183 951.161 604.736 949.492 615.313 941.939 620.808 934.386 626.302 923.809 624.633 918.314 617.08Z" fill="#FFC000" fill-rule="evenodd" fill-opacity="1"/></g></g></svg>