<svg width="4006" height="1068" xmlns="http://www.w3.org/2000/svg" xmlns:xlink="http://www.w3.org/1999/xlink" xml:space="preserve" overflow="hidden"><g transform="translate(-499 -9)"><g><text fill="#000000" fill-opacity="1" font-family="BioRhyme,BioRhyme_MSFontService,sans-serif" font-style="normal" font-variant="normal" font-weight="400" font-stretch="normal" font-size="458" text-anchor="start" direction="ltr" writing-mode="lr-tb" unicode-bidi="normal" text-decoration="none" transform="matrix(1 0 0 1 1363.58 548)">Inagaki Lab</text><text fill="#000000" fill-opacity="1" font-family="BioRhyme,BioRhyme_MSFontService,sans-serif" font-style="normal" font-variant="normal" font-weight="400" font-stretch="normal" font-size="229" text-anchor="start" direction="ltr" writing-mode="lr-tb" unicode-bidi="normal" text-decoration="none" transform="matrix(1 0 0 1 1363.58 862)">The University of Tokyo</text><path d="M548.376 752.138C489.996 700.034 484.907 610.469 537.011 552.089 589.114 493.709 678.679 488.62 737.059 540.724 795.44 592.827 800.528 682.392 748.425 740.772 696.321 799.153 606.757 804.241 548.376 752.138Z" fill="#FF0000" fill-rule="evenodd" fill-opacity="1"/><path d="M813.942 861.198C768.437 762.614 811.466 645.807 910.05 600.302 1008.63 554.797 1125.44 597.826 1170.95 696.409 1216.45 794.993 1173.42 911.8 1074.84 957.305 976.254 1002.81 859.447 959.782 813.942 861.198Z" fill="#FFC000" fill-rule="evenodd" fill-opacity="1"/><path d="M1024.87 532.193C966.492 480.089 961.403 390.524 1013.51 332.144 1065.61 273.763 1155.18 268.675 1213.56 320.778 1271.94 372.882 1277.02 462.447 1224.92 520.827 1172.82 579.208 1083.25 584.296 1024.87 532.193Z" fill="#0070C0" fill-rule="evenodd" fill-opacity="1"/><path d="M590.178 376.429C544.673 277.846 587.702 161.039 686.286 115.533 784.87 70.0283 901.677 113.057 947.182 211.641 992.687 310.224 949.658 427.031 851.074 472.536 752.491 518.042 635.683 475.013 590.178 376.429Z" fill="#008F00" fill-rule="evenodd" fill-opacity="1"/><path d="M765.529 468.658C747.928 430.526 764.572 385.346 802.703 367.745 840.835 350.144 886.015 366.787 903.617 404.919 921.218 443.05 904.574 488.231 866.443 505.832 828.311 523.433 783.131 506.79 765.529 468.658Z" fill="#FFFFFF" fill-rule="evenodd" fill-opacity="1"/><path d="M660.237 638.344C642.635 600.212 659.279 555.031 697.41 537.43 735.542 519.829 780.723 536.472 798.324 574.604 815.925 612.736 799.282 657.916 761.15 675.517 723.018 693.119 677.838 676.475 660.237 638.344Z" fill="#FFFFFF" fill-rule="evenodd" fill-opacity="1"/><path d="M857.749 668.445C840.148 630.313 856.791 585.132 894.922 567.531 933.054 549.93 978.235 566.573 995.836 604.705 1013.44 642.837 996.794 688.017 958.662 705.618 920.53 723.22 875.35 706.576 857.749 668.445Z" fill="#FFFFFF" fill-rule="evenodd" fill-opacity="1"/><path d="M960.745 499.633C943.144 461.501 959.787 416.321 997.919 398.72 1036.05 381.118 1081.23 397.762 1098.83 435.893 1116.43 474.025 1099.79 519.205 1061.66 536.807 1023.53 554.408 978.346 537.764 960.745 499.633Z" fill="#FFFFFF" fill-rule="evenodd" fill-opacity="1"/><path d="M828.81 464.655C824.895 456.174 828.597 446.126 837.077 442.212 845.557 438.297 855.605 441.999 859.52 450.479 863.434 458.96 859.733 469.008 851.252 472.922 842.772 476.836 832.724 473.135 828.81 464.655Z" fill="#008F00" fill-rule="evenodd" fill-opacity="1"/><path d="M740.652 601.225C736.737 592.745 740.439 582.697 748.919 578.783 757.4 574.868 767.448 578.57 771.362 587.05 775.276 595.53 771.575 605.578 763.095 609.493 754.614 613.407 744.566 609.706 740.652 601.225Z" fill="#FF0000" fill-rule="evenodd" fill-opacity="1"/><path d="M990.124 486.072C986.209 477.591 989.911 467.544 998.391 463.629 1006.87 459.715 1016.92 463.416 1020.83 471.896 1024.75 480.377 1021.05 490.425 1012.57 494.339 1004.09 498.254 994.038 494.552 990.124 486.072Z" fill="#0070C0" fill-rule="evenodd" fill-opacity="1"/><path d="M901.822 622.832C897.908 614.352 901.609 604.304 910.09 600.389 918.57 596.475 928.618 600.176 932.533 608.657 936.447 617.137 932.746 627.185 924.265 631.099 915.785 635.014 905.737 631.312 901.822 622.832Z" fill="#FFC000" fill-rule="evenodd" fill-opacity="1"/></g></g></svg>